REM DIRINDEX 1\2,1\3,1\4,1\5,1\6,1\7,1\8
REM DIRNAME cjc152,folder01,folder02,folder03,folder04,folder05,folder06,folder07
TITLE ""
FILE "16_Ch4_Smartphone_PCLife_Words.mp3" MP3
  TRACK 01 AUDIO
    TITLE "0:"
    INDEX 01 00:00:00
  TRACK 02 AUDIO
    TITLE "8:cjc152_0803"
    INDEX 01 00:00:33
  TRACK 03 AUDIO
    TITLE "0:"
    INDEX 01 00:04:48
  TRACK 04 AUDIO
    TITLE "8:cjc152_0804"
    INDEX 01 00:05:30
  TRACK 05 AUDIO
    TITLE "0:"
    INDEX 01 00:06:43
  TRACK 06 AUDIO
    TITLE "2:cjc152_0805"
    INDEX 01 00:07:35
  TRACK 07 AUDIO
    TITLE "0:"
    INDEX 01 00:08:62
  TRACK 08 AUDIO
    TITLE "2:cjc152_0806"
    INDEX 01 00:09:36
  TRACK 09 AUDIO
    TITLE "0:"
    INDEX 01 00:10:51
  TRACK 10 AUDIO
    TITLE "2:cjc152_0807"
    INDEX 01 00:11:35
  TRACK 11 AUDIO
    TITLE "0:"
    INDEX 01 00:12:28
  TRACK 12 AUDIO
    TITLE "2:cjc152_0808"
    INDEX 01 00:12:63
  TRACK 13 AUDIO
    TITLE "0:"
    INDEX 01 00:13:49
  TRACK 14 AUDIO
    TITLE "2:cjc152_0809"
    INDEX 01 00:14:33
  TRACK 15 AUDIO
    TITLE "0:"
    INDEX 01 00:16:00
  TRACK 16 AUDIO
    TITLE "2:cjc152_0810"
    INDEX 01 00:16:30
  TRACK 17 AUDIO
    TITLE "0:"
    INDEX 01 00:17:55
  TRACK 18 AUDIO
    TITLE "2:cjc152_0811"
    INDEX 01 00:18:41
  TRACK 19 AUDIO
    TITLE "0:"
    INDEX 01 00:19:42
  TRACK 20 AUDIO
    TITLE "2:cjc152_0812"
    INDEX 01 00:19:71
  TRACK 21 AUDIO
    TITLE "0:"
    INDEX 01 00:20:73
  TRACK 22 AUDIO
    TITLE "2:cjc152_0813"
    INDEX 01 00:21:58
  TRACK 23 AUDIO
    TITLE "0:"
    INDEX 01 00:22:70
  TRACK 24 AUDIO
    TITLE "2:cjc152_0814"
    INDEX 01 00:23:26
  TRACK 25 AUDIO
    TITLE "0:"
    INDEX 01 00:24:25
  TRACK 26 AUDIO
    TITLE "2:cjc152_0815"
    INDEX 01 00:25:07
  TRACK 27 AUDIO
    TITLE "0:"
    INDEX 01 00:26:26
  TRACK 28 AUDIO
    TITLE "2:cjc152_0816"
    INDEX 01 00:26:58
  TRACK 29 AUDIO
    TITLE "0:"
    INDEX 01 00:28:19
  TRACK 30 AUDIO
    TITLE "2:cjc152_0817"
    INDEX 01 00:29:03
  TRACK 31 AUDIO
    TITLE "0:"
    INDEX 01 00:30:05
  TRACK 32 AUDIO
    TITLE "2:cjc152_0818"
    INDEX 01 00:30:34
  TRACK 33 AUDIO
    TITLE "0:"
    INDEX 01 00:31:53
  TRACK 34 AUDIO
    TITLE "2:cjc152_0819"
    INDEX 01 00:32:35
  TRACK 35 AUDIO
    TITLE "0:"
    INDEX 01 00:33:38
  TRACK 36 AUDIO
    TITLE "2:cjc152_0820"
    INDEX 01 00:33:68
  TRACK 37 AUDIO
    TITLE "0:"
    INDEX 01 00:35:39
  TRACK 38 AUDIO
    TITLE "2:cjc152_0821"
    INDEX 01 00:36:23
  TRACK 39 AUDIO
    TITLE "0:"
    INDEX 01 00:37:61
  TRACK 40 AUDIO
    TITLE "2:cjc152_0822"
    INDEX 01 00:38:14
  TRACK 41 AUDIO
    TITLE "0:"
    INDEX 01 00:39:54
  TRACK 42 AUDIO
    TITLE "2:cjc152_0823"
    INDEX 01 00:40:36
  TRACK 43 AUDIO
    TITLE "0:"
    INDEX 01 00:41:49
  TRACK 44 AUDIO
    TITLE "2:cjc152_0824"
    INDEX 01 00:42:04
  TRACK 45 AUDIO
    TITLE "0:"
    INDEX 01 00:44:01
  TRACK 46 AUDIO
    TITLE "2:cjc152_0825"
    INDEX 01 00:44:60
  TRACK 47 AUDIO
    TITLE "0:"
    INDEX 01 00:46:13
  TRACK 48 AUDIO
    TITLE "2:cjc152_0826"
    INDEX 01 00:46:43
  TRACK 49 AUDIO
    TITLE "0:"
    INDEX 01 00:47:72
  TRACK 50 AUDIO
    TITLE "2:cjc152_0827"
    INDEX 01 00:48:55
  TRACK 51 AUDIO
    TITLE "0:"
    INDEX 01 00:49:57
  TRACK 52 AUDIO
    TITLE "2:cjc152_0828"
    INDEX 01 00:50:11
  TRACK 53 AUDIO
    TITLE "0:"
    INDEX 01 00:51:15
  TRACK 54 AUDIO
    TITLE "2:cjc152_0829"
    INDEX 01 00:51:71
  TRACK 55 AUDIO
    TITLE "0:"
    INDEX 01 00:53:00
  TRACK 56 AUDIO
    TITLE "2:cjc152_0830"
    INDEX 01 00:53:31
  TRACK 57 AUDIO
    TITLE "0:"
    INDEX 01 00:54:34
  TRACK 58 AUDIO
    TITLE "2:cjc152_0831"
    INDEX 01 00:55:18
  TRACK 59 AUDIO
    TITLE "0:"
    INDEX 01 00:56:61
  TRACK 60 AUDIO
    TITLE "2:cjc152_0832"
    INDEX 01 00:57:17
  TRACK 61 AUDIO
    TITLE "0:"
    INDEX 01 00:58:18
  TRACK 62 AUDIO
    TITLE "2:cjc152_0833"
    INDEX 01 00:59:02
  TRACK 63 AUDIO
    TITLE "0:"
    INDEX 01 01:00:39
  TRACK 64 AUDIO
    TITLE "2:cjc152_0834"
    INDEX 01 01:00:70
  TRACK 65 AUDIO
    TITLE "0:"
    INDEX 01 01:02:32
  TRACK 66 AUDIO
    TITLE "2:cjc152_0835"
    INDEX 01 01:03:18
  TRACK 67 AUDIO
    TITLE "0:"
    INDEX 01 01:04:27
  TRACK 68 AUDIO
    TITLE "2:cjc152_0836"
    INDEX 01 01:04:56
  TRACK 69 AUDIO
    TITLE "0:"
    INDEX 01 01:05:54
  TRACK 70 AUDIO
    TITLE "2:cjc152_0837"
    INDEX 01 01:06:38
  TRACK 71 AUDIO
    TITLE "0:"
    INDEX 01 01:08:23
  TRACK 72 AUDIO
    TITLE "2:cjc152_0838"
    INDEX 01 01:08:52
  TRACK 73 AUDIO
    TITLE "0:"
    INDEX 01 01:09:50
  TRACK 74 AUDIO
    TITLE "2:cjc152_0839"
    INDEX 01 01:10:35
  TRACK 75 AUDIO
    TITLE "0:"
    INDEX 01 01:11:31
  TRACK 76 AUDIO
    TITLE "2:cjc152_0840"
    INDEX 01 01:11:60
  TRACK 77 AUDIO
    TITLE "0:"
    INDEX 01 01:12:71
  TRACK 78 AUDIO
    TITLE "2:cjc152_0841"
    INDEX 01 01:13:53
  TRACK 79 AUDIO
    TITLE "0:"
    INDEX 01 01:14:72
  TRACK 80 AUDIO
    TITLE "2:cjc152_0842"
    INDEX 01 01:15:27
  TRACK 81 AUDIO
    TITLE "0:"
    INDEX 01 01:16:36
  TRACK 82 AUDIO
    TITLE "2:cjc152_0843"
    INDEX 01 01:17:22
  TRACK 83 AUDIO
    TITLE "0:"
    INDEX 01 01:18:21
  TRACK 84 AUDIO
    TITLE "2:cjc152_0844"
    INDEX 01 01:18:53
  TRACK 85 AUDIO
    TITLE "0:"
    INDEX 01 01:19:48
  TRACK 86 AUDIO
    TITLE "2:cjc152_0845"
    INDEX 01 01:20:32
  TRACK 87 AUDIO
    TITLE "0:"
    INDEX 01 01:21:29
  TRACK 88 AUDIO
    TITLE "2:cjc152_0846"
    INDEX 01 01:21:59
  TRACK 89 AUDIO
    TITLE "0:"
    INDEX 01 01:22:64
  TRACK 90 AUDIO
    TITLE "2:cjc152_0847"
    INDEX 01 01:23:44
  TRACK 91 AUDIO
    TITLE "0:"
    INDEX 01 01:24:57
  TRACK 92 AUDIO
    TITLE "2:cjc152_0848"
    INDEX 01 01:25:13
  TRACK 93 AUDIO
    TITLE "0:"
    INDEX 01 01:26:30
  TRACK 94 AUDIO
    TITLE "2:cjc152_0849"
    INDEX 01 01:27:12
  TRACK 95 AUDIO
    TITLE "0:"
    INDEX 01 01:28:22
  TRACK 96 AUDIO
    TITLE "2:cjc152_0850"
    INDEX 01 01:28:51
  TRACK 97 AUDIO
    TITLE "0:"
    INDEX 01 01:30:34
  TRACK 98 AUDIO
    TITLE "2:cjc152_0851"
    INDEX 01 01:31:18
  TRACK 99 AUDIO
    TITLE "0:"
    INDEX 01 01:32:27
  TRACK 100 AUDIO
    TITLE "2:cjc152_0852"
    INDEX 01 01:32:59
  TRACK 101 AUDIO
    TITLE "0:"
    INDEX 01 01:34:18
  TRACK 102 AUDIO
    TITLE "2:cjc152_0853"
    INDEX 01 01:35:04
  TRACK 103 AUDIO
    TITLE "0:"
    INDEX 01 01:36:25
  TRACK 104 AUDIO
    TITLE "2:cjc152_0854"
    INDEX 01 01:36:60
  TRACK 105 AUDIO
    TITLE "0:"
    INDEX 01 01:38:32
  TRACK 106 AUDIO
    TITLE "2:cjc152_0855"
    INDEX 01 01:39:17
  TRACK 107 AUDIO
    TITLE "0:"
    INDEX 01 01:40:42
  TRACK 108 AUDIO
    TITLE "2:cjc152_0856"
    INDEX 01 01:40:74
  TRACK 109 AUDIO
    TITLE "0:"
    INDEX 01 01:42:14
  TRACK 110 AUDIO
    TITLE "2:cjc152_0857"
    INDEX 01 01:42:73
  TRACK 111 AUDIO
    TITLE "0:"
    INDEX 01 01:43:74
  TRACK 112 AUDIO
    TITLE "2:cjc152_0858"
    INDEX 01 01:44:28
  TRACK 113 AUDIO
    TITLE "0:"
    INDEX 01 01:45:44
